<svg xmlns="http://www.w3.org/2000/svg" version="1.1" xmlns:xlink="http://www.w3.org/1999/xlink" xmlns:svgjs="http://svgjs.dev/svgjs" width="1000" height="623" viewBox="0 0 1000 623"><g transform="matrix(1,0,0,1,-0.6060606060606233,0.2522267206477409)"><svg viewBox="0 0 396 247" data-background-color="#c9efc7" preserveAspectRatio="xMidYMid meet" height="623" width="1000" xmlns="http://www.w3.org/2000/svg" xmlns:xlink="http://www.w3.org/1999/xlink"><g id="tight-bounds" transform="matrix(1,0,0,1,0.2400000000000091,-0.09999999999999432)"><svg viewBox="0 0 395.52 247.2" height="247.2" width="395.52"><g><svg></svg></g><g><svg viewBox="0 0 395.52 247.2" height="247.2" width="395.52"><g transform="matrix(1,0,0,1,75.54432,101.42970949214468)"><svg viewBox="0 0 244.43135999999998 44.34058101571062" height="44.34058101571062" width="244.43135999999998"><g><svg viewBox="0 0 244.43135999999998 44.34058101571062" height="44.34058101571062" width="244.43135999999998"><g><svg viewBox="0 0 244.43135999999998 44.34058101571062" height="44.34058101571062" width="244.43135999999998"><g><svg viewBox="0 0 244.43135999999998 44.34058101571062" height="44.34058101571062" width="244.43135999999998"><g id="textblocktransform"><svg viewBox="0 0 244.43135999999998 44.34058101571062" height="44.34058101571062" width="244.43135999999998" id="textblock"><g><svg viewBox="0 0 244.43135999999998 44.34058101571062" height="44.34058101571062" width="244.43135999999998"><g transform="matrix(1,0,0,1,0,0)"><svg width="244.43135999999998" viewBox="2.299999952316284 -38.150001525878906 273.6700134277344 49.650001525878906" height="44.34058101571062" data-palette-color="#454545"><path d="M2.3-24.65L7.25-25.3Q7.6-24.45 7.83-23.58 8.05-22.7 8.15-21.8L8.15-21.8Q9.65-23.25 11.7-24.35 13.75-25.45 15.85-25.45L15.85-25.45Q18.65-25.45 20.3-24.33 21.95-23.2 22.7-21.23 23.45-19.25 23.45-16.65L23.45-16.65 23.45 0 18.9 0 18.9-15.45Q18.9-16.9 18.7-18.32 18.5-19.75 17.68-20.65 16.85-21.55 14.95-21.55L14.95-21.55Q13.85-21.55 12.63-21.08 11.4-20.6 10.33-19.88 9.25-19.15 8.45-18.35L8.45-18.35 8.45 0 3.95 0 3.95-17.65Q3.95-18.6 3.8-19.93 3.65-21.25 3.3-22.55 2.95-23.85 2.3-24.65L2.3-24.65ZM40.8-25.45L40.8-25.45Q43.9-25.45 45.97-24.18 48.05-22.9 49.1-20.68 50.15-18.45 50.15-15.6L50.15-15.6Q50.15-14.9 50.07-14.15 50-13.4 49.85-12.55L49.85-12.55 34.15-12.55Q34.15-8 36.22-5.5 38.3-3 41.7-3L41.7-3Q43.15-3 44.75-3.45 46.35-3.9 48.05-4.85L48.05-4.85 49.6-2.15Q47.9-0.75 45.6-0.05 43.3 0.65 41.1 0.65L41.1 0.65Q37.2 0.65 34.57-1.15 31.95-2.95 30.65-5.9 29.35-8.85 29.35-12.15L29.35-12.15Q29.35-14.7 30.07-17.05 30.8-19.4 32.25-21.33 33.7-23.25 35.82-24.35 37.95-25.45 40.8-25.45ZM40.45-22.1L40.45-22.1Q38.75-22.1 37.47-21.18 36.2-20.25 35.45-18.8 34.7-17.35 34.45-15.85L34.45-15.85 45.4-15.85Q45.5-17.8 44.9-19.2 44.3-20.6 43.17-21.35 42.05-22.1 40.45-22.1ZM52.95-24.85L58.15-24.85 74.09 0.05 68.95 0.05 52.95-24.85ZM52.3 0.05L68.7-24.85 73.45-24.85 57.09 0.05 52.3 0.05ZM81.19-32L84.49-32Q84.14-30.25 83.87-28.43 83.59-26.6 83.49-24.85L83.49-24.85 89.89-24.85 89.04-21.55 83.49-21.55 83.49-6.1Q83.49-5.2 83.69-4.48 83.89-3.75 84.44-3.33 84.99-2.9 86.04-2.9L86.04-2.9Q86.84-2.9 87.64-3.05 88.44-3.2 89.19-3.4L89.19-3.4 89.89-0.4Q88.64-0.05 87.42 0.25 86.19 0.55 84.74 0.55L84.74 0.55Q81.54 0.55 80.24-1.13 78.94-2.8 78.94-5.9L78.94-5.9 78.94-21.55 75.14-21.55 75.14-24.2Q77.14-24.25 78.34-25.53 79.54-26.8 80.19-28.6 80.84-30.4 81.19-32L81.19-32ZM113.19-25.5L113.19-25.5Q114.64-25.5 115.94-25.13 117.24-24.75 118.64-24.75L118.64-24.75Q120.59-24.75 122.61-24.98 124.64-25.2 126.79-25.5L126.79-25.5 125.84-21.75 121.79-21.75Q121.44-21.75 121.09-21.8 120.74-21.85 120.39-21.9L120.39-21.9Q121.24-20.8 121.66-19.58 122.09-18.35 122.09-17.05L122.09-17.05Q122.09-14.55 120.94-12.55 119.79-10.55 117.64-9.43 115.49-8.3 112.54-8.3L112.54-8.3Q111.39-8.3 110.49-7.68 109.59-7.05 109.59-5.75L109.59-5.75Q109.59-4.9 110.09-4.53 110.59-4.15 111.34-4.1 112.09-4.05 112.84-4.05L112.84-4.05 117.19-4.05Q118.54-4.05 119.94-3.88 121.34-3.7 122.54-3.18 123.74-2.65 124.46-1.6 125.19-0.55 125.19 1.25L125.19 1.25Q125.19 4 124.06 5.95 122.94 7.9 121.06 9.15 119.19 10.4 116.86 10.95 114.54 11.5 112.19 11.5L112.19 11.5Q110.79 11.5 109.19 11.2 107.59 10.9 106.19 10.18 104.79 9.45 103.91 8.25 103.04 7.05 103.04 5.2L103.04 5.2Q103.04 3.25 104.24 1.75 105.44 0.25 107.04-0.7L107.04-0.7 107.04-0.9Q105.99-1.35 105.34-2.33 104.69-3.3 104.69-4.45L104.69-4.45Q104.69-5.05 105.19-5.6 105.69-6.15 106.49-7.1 107.29-8.05 108.19-9.7L108.19-9.7Q106.39-10.9 105.31-12.78 104.24-14.65 104.24-16.85L104.24-16.85Q104.24-19.3 105.46-21.25 106.69-23.2 108.74-24.35 110.79-25.5 113.19-25.5ZM113.19-22.3L113.19-22.3Q111.44-22.3 110.21-20.73 108.99-19.15 108.99-16.85L108.99-16.85Q108.99-14.5 110.21-12.93 111.44-11.35 113.14-11.35L113.14-11.35Q115.09-11.35 116.24-12.88 117.39-14.4 117.39-16.8L117.39-16.8Q117.39-19.15 116.16-20.73 114.94-22.3 113.19-22.3ZM115.94 0.05L110.24 0.05Q109.29 0.7 108.49 1.93 107.69 3.15 107.69 4.3L107.69 4.3Q107.69 5.5 108.54 6.3 109.39 7.1 110.64 7.5 111.89 7.9 112.94 7.9L112.94 7.9Q114.64 7.9 116.51 7.43 118.39 6.95 119.69 5.83 120.99 4.7 120.99 2.7L120.99 2.7Q120.99 1.4 120.16 0.85 119.34 0.3 118.19 0.18 117.04 0.05 115.94 0.05L115.94 0.05ZM139.48-25.45L139.48-25.45Q142.59-25.45 144.66-24.18 146.74-22.9 147.78-20.68 148.84-18.45 148.84-15.6L148.84-15.6Q148.84-14.9 148.76-14.15 148.69-13.4 148.53-12.55L148.53-12.55 132.84-12.55Q132.84-8 134.91-5.5 136.98-3 140.38-3L140.38-3Q141.84-3 143.44-3.45 145.03-3.9 146.74-4.85L146.74-4.85 148.28-2.15Q146.59-0.75 144.28-0.05 141.98 0.65 139.78 0.65L139.78 0.65Q135.88 0.65 133.26-1.15 130.63-2.95 129.34-5.9 128.03-8.85 128.03-12.15L128.03-12.15Q128.03-14.7 128.76-17.05 129.48-19.4 130.94-21.33 132.38-23.25 134.51-24.35 136.63-25.45 139.48-25.45ZM139.13-22.1L139.13-22.1Q137.44-22.1 136.16-21.18 134.88-20.25 134.13-18.8 133.38-17.35 133.13-15.85L133.13-15.85 144.09-15.85Q144.19-17.8 143.59-19.2 142.98-20.6 141.86-21.35 140.73-22.1 139.13-22.1ZM153.03-24.65L157.98-25.3Q158.33-24.45 158.56-23.58 158.78-22.7 158.88-21.8L158.88-21.8Q160.38-23.25 162.43-24.35 164.48-25.45 166.58-25.45L166.58-25.45Q169.38-25.45 171.03-24.33 172.68-23.2 173.43-21.23 174.18-19.25 174.18-16.65L174.18-16.65 174.18 0 169.63 0 169.63-15.45Q169.63-16.9 169.43-18.32 169.23-19.75 168.41-20.65 167.58-21.55 165.68-21.55L165.68-21.55Q164.58-21.55 163.36-21.08 162.13-20.6 161.06-19.88 159.98-19.15 159.18-18.35L159.18-18.35 159.18 0 154.68 0 154.68-17.65Q154.68-18.6 154.53-19.93 154.38-21.25 154.03-22.55 153.68-23.85 153.03-24.65L153.03-24.65ZM196.43-32L199.73-32Q199.38-30.25 199.1-28.43 198.83-26.6 198.73-24.85L198.73-24.85 205.13-24.85 204.28-21.55 198.73-21.55 198.73-6.1Q198.73-5.2 198.93-4.48 199.13-3.75 199.68-3.33 200.23-2.9 201.28-2.9L201.28-2.9Q202.08-2.9 202.88-3.05 203.68-3.2 204.43-3.4L204.43-3.4 205.13-0.4Q203.88-0.05 202.65 0.25 201.43 0.55 199.98 0.55L199.98 0.55Q196.78 0.55 195.48-1.13 194.18-2.8 194.18-5.9L194.18-5.9 194.18-21.55 190.38-21.55 190.38-24.2Q192.38-24.25 193.58-25.53 194.78-26.8 195.43-28.6 196.08-30.4 196.43-32L196.43-32ZM218.78-25.45L218.78-25.45Q221.88-25.45 223.95-24.18 226.03-22.9 227.08-20.68 228.13-18.45 228.13-15.6L228.13-15.6Q228.13-14.9 228.05-14.15 227.98-13.4 227.83-12.55L227.83-12.55 212.13-12.55Q212.13-8 214.2-5.5 216.28-3 219.68-3L219.68-3Q221.13-3 222.73-3.45 224.33-3.9 226.03-4.85L226.03-4.85 227.58-2.15Q225.88-0.75 223.58-0.05 221.28 0.65 219.08 0.65L219.08 0.65Q215.18 0.65 212.55-1.15 209.93-2.95 208.63-5.9 207.33-8.85 207.33-12.15L207.33-12.15Q207.33-14.7 208.05-17.05 208.78-19.4 210.23-21.33 211.68-23.25 213.8-24.35 215.93-25.45 218.78-25.45ZM218.43-22.1L218.43-22.1Q216.73-22.1 215.45-21.18 214.18-20.25 213.43-18.8 212.68-17.35 212.43-15.85L212.43-15.85 223.38-15.85Q223.48-17.8 222.88-19.2 222.28-20.6 221.15-21.35 220.03-22.1 218.43-22.1ZM243.82-25.45L243.82-25.45Q245.72-25.45 247.67-24.83 249.62-24.2 251.42-22.95L251.42-22.95 249.02-19.85Q247.62-20.95 246.32-21.48 245.02-22 243.72-22L243.72-22Q242.17-22 240.95-21.28 239.72-20.55 238.8-19.25 237.87-17.95 237.4-16.23 236.92-14.5 236.92-12.45L236.92-12.45Q236.92-7.85 238.97-5.4 241.02-2.95 244.22-2.95L244.22-2.95Q245.67-2.95 247.05-3.38 248.42-3.8 249.92-4.7L249.92-4.7 251.32-1.85Q249.27-0.6 247.45 0.03 245.62 0.65 243.27 0.65L243.27 0.65Q239.92 0.65 237.4-1 234.87-2.65 233.45-5.63 232.02-8.6 232.02-12.6L232.02-12.6Q232.02-16.5 233.6-19.4 235.17-22.3 237.87-23.88 240.57-25.45 243.82-25.45ZM255.87-38.15L260.97-38.15 260.97-22.05Q262.57-23.45 264.42-24.48 266.27-25.5 268.47-25.5L268.47-25.5Q271.22-25.5 272.87-24.38 274.52-23.25 275.25-21.28 275.97-19.3 275.97-16.7L275.97-16.7 275.97 0 271.47 0 271.47-15.5Q271.47-16.95 271.25-18.35 271.02-19.75 270.22-20.68 269.42-21.6 267.52-21.6L267.52-21.6Q266.37-21.6 265.2-21.1 264.02-20.6 262.95-19.88 261.87-19.15 260.97-18.4L260.97-18.4 260.97 0 256.47 0 256.47-35.3 255.87-38.15Z" opacity="1" transform="matrix(1,0,0,1,0,0)" fill="#454545" class="wordmark-text-0" data-fill-palette-color="primary" id="text-0"></path></svg></g></svg></g></svg></g></svg></g></svg></g></svg></g></svg></g><path d="M208.627 95.43L208.627 33.883 388.061 33.883 388.061 213.317 208.627 213.317 208.627 151.77 212.625 151.77 212.625 209.319 384.063 209.319 384.063 37.881 212.625 37.881 212.625 95.43Z" fill="#454545" stroke="transparent" data-fill-palette-color="primary"></path></svg></g><defs></defs></svg><rect width="395.52" height="247.2" fill="none" stroke="none" visibility="hidden"></rect></g></svg></g></svg>